<!DOCTYPE svg PUBLIC "-//W3C//DTD SVG 1.1//EN" "http://www.w3.org/Graphics/SVG/1.1/DTD/svg11.dtd">
<!-- Uploaded to: SVG Repo, www.svgrepo.com, Transformed by: SVG Repo Mixer Tools -->
<svg width="800px" height="800px" viewBox="0 0 24 24" version="1.1" xml:space="preserve" xmlns="http://www.w3.org/2000/svg" xmlns:xlink="http://www.w3.org/1999/xlink" fill="#26a269">
<g id="SVGRepo_bgCarrier" stroke-width="0"/>
<g id="SVGRepo_tracerCarrier" stroke-linecap="round" stroke-linejoin="round"/>
<g id="SVGRepo_iconCarrier"> <style type="text/css"> .st0{opacity:0.2;fill:none;stroke:#000000;stroke-width:5.000000e-02;stroke-miterlimit:10;} .st1{fill:none;stroke:#000000;stroke-width:2;stroke-linecap:round;stroke-linejoin:round;stroke-miterlimit:10;} </style> <g id="Layer_1"/> <g id="Layer_2"> <g> <path d="M15,21c-3.3,0-6-2.7-6-6V9c0-3.3,2.7-6,6-6s6,2.7,6,6c0,0.6-0.4,1-1,1s-1-0.4-1-1c0-2.2-1.8-4-4-4s-4,1.8-4,4v6 c0,2.2,1.8,4,4,4s4-1.8,4-4c0-0.6,0.4-1,1-1s1,0.4,1,1C21,18.3,18.3,21,15,21z"/> </g> <g> <path d="M5.5,8C4.1,8,3,6.9,3,5.5S4.1,3,5.5,3S8,4.1,8,5.5S6.9,8,5.5,8z M5.5,5C5.2,5,5,5.2,5,5.5S5.2,6,5.5,6S6,5.8,6,5.5 S5.8,5,5.5,5z"/> </g> </g> </g>
</svg>